Patient4_TMGait_0pt2_01_left_01_GRF.mot
version=1
nRows=45
nColumns=19
inDegrees=no
endheader
time	F1x	F1y	F1z	M1x	M1y	M1z	F2x	F2y	F2z	M2x	M2y	M2z	EC1x	EC1y	EC1z	EC2x	EC2y	EC2z
1.14	4.2316	106.6913	15.3246	-37.562	-12.6728	106.2961	-10.0794	692.0656	-33.555	259.7483	42.358	757.8113	-0.0592	0.0182	-0.0073	-0.0462	0.0165	0.9585
1.1622	2.4905	93.3698	13.5041	-32.8275	-11.814	93.4754	-8.6433	713.499	-34.7915	266.9652	43.0934	779.6863	-0.0592	0.0182	-0.0073	-0.0462	0.0165	0.9585
1.1844	0.63074	78.0417	11.5232	-27.3984	-10.79	78.5223	-7.5539	736.0336	-36.2502	274.6116	44.1177	802.5154	-0.0592	0.0182	-0.0073	-0.0462	0.0165	0.9585
1.2066	-1.1041	61.7981	9.4568	-21.6663	-9.5709	62.5034	-6.8589	757.4481	-37.7873	281.9119	45.2935	823.9656	-0.0592	0.0182	-0.0073	-0.0462	0.0165	0.9585
1.2289	-2.4168	45.8909	7.3749	-16.073	-8.1189	46.6842	-6.4949	775.8293	-39.2225	288.1892	46.4123	842.0254	-0.0592	0.0182	-0.0073	-0.0462	0.0165	0.9585
1.2511	-3.0603	31.4921	5.364	-11.026	-6.4413	32.2704	-6.3425	789.8844	-40.3859	292.9838	47.2583	855.3256	-0.0592	0.0182	-0.0073	-0.0462	0.0165	0.9585
1.2733	-2.9957	19.4884	3.5455	-6.8293	-4.6591	20.1864	-6.2561	799.0563	-41.1636	296.0936	47.669	863.2632	-0.0592	0.0182	-0.0073	-0.0462	0.0165	0.9585
1.2955	-2.4876	10.3403	2.0593	-3.6374	-3.0195	10.9315	-6.0817	803.4957	-41.5181	297.5642	47.5616	865.9841	-0.0592	0.0182	-0.0073	-0.0462	0.0165	0.9585
1.3177	-1.8134	3.945	0.9615	-1.4104	-1.6883	4.4322	-5.6679	803.9399	-41.4806	297.6456	46.9256	864.261	-0.0592	0.0182	-0.0073	-0.0462	0.0165	0.9585
1.3399	-1.1442	-0.1737	0.22393	0.022408	-0.70808	0.21236	-4.8935	801.487	-41.133	296.7156	45.8127	859.2582	-0.0592	0.0182	-0.0073	-0.0462	0.0165	0.9585
1.3621	-0.57149	-2.6343	-0.22412	0.88212	-0.045948	-2.36	-3.6919	797.3031	-40.5746	295.1779	44.313	852.2296	-0.0592	0.0182	-0.0073	-0.0462	0.0165	0.9585
1.3844	-0.13234	-4.0473	-0.46592	1.3856	0.36624	-3.9077	-2.0493	792.3957	-39.9	293.3832	42.5331	844.2773	-0.0592	0.0182	-0.0073	-0.0462	0.0165	0.9585
1.4066	0.17063	-4.9233	-0.58078	1.7115	0.60444	-4.9583	-0.0005501	787.4589	-39.1918	291.5727	40.5852	836.1747	-0.0592	0.0182	-0.0073	-0.0462	0.0165	0.9585
1.4288	0.356	-5.6156	-0.63527	1.9815	0.73897	-5.8761	2.3839	782.8242	-38.5135	289.8609	38.5691	828.3033	-0.0592	0.0182	-0.0073	-0.0462	0.0165	0.9585
1.451	0.45406	-6.2855	-0.67616	2.2481	0.82666	-6.8156	5.01	778.5153	-37.9004	288.2568	36.5586	820.7124	-0.0592	0.0182	-0.0073	-0.0462	0.0165	0.9585
1.4732	0.49985	-6.8726	-0.72658	2.4821	0.90303	-7.6887	7.7859	774.3693	-37.3569	286.7073	34.5911	813.2428	-0.0592	0.0182	-0.0073	-0.0462	0.0165	0.9585
1.4954	0.52365	-7.0671	-0.78812	2.5639	0.98233	-8.1258	10.6398	770.1865	-36.8657	285.1466	32.6744	805.687	-0.0592	0.0182	-0.0073	-0.0462	0.0165	0.9585
1.5176	0.55152	-6.2902	-0.8432	2.2771	1.0568	-7.443	13.5199	765.8023	-36.4062	283.5158	30.8053	797.8788	-0.0592	0.0182	-0.0073	-0.0462	0.0165	0.9585
1.5399	0.61026	-3.6929	-0.85539	1.3066	1.096	-4.6398	16.3825	761.0138	-35.966	281.7303	28.9835	789.6283	-0.0592	0.0182	-0.0073	-0.0462	0.0165	0.9585
1.5621	0.72527	1.8113	-0.76369	-0.75049	1.0408	1.5666	19.1684	755.4534	-35.5505	279.6325	27.2306	780.6011	-0.0592	0.0182	-0.0073	-0.0462	0.0165	0.9585
1.5843	0.91561	11.4412	-0.48151	-4.3447	0.79247	12.6295	21.7857	748.4931	-35.1866	276.9586	25.6021	770.2293	-0.0592	0.0182	-0.0073	-0.0462	0.0165	0.9585
1.6065	1.1866	26.3377	0.098055	-9.8946	0.21745	29.9295	24.1077	739.191	-34.9081	273.3263	24.1734	757.6486	-0.0592	0.0182	-0.0073	-0.0462	0.0165	0.9585
1.6287	1.4602	47.2599	1.0905	-17.6742	-0.85829	54.4283	25.9841	726.3617	-34.7263	268.2714	23.0087	741.7525	-0.0592	0.0182	-0.0073	-0.0462	0.0165	0.9585
1.6509	1.4421	74.1611	2.6006	-27.6537	-2.6716	86.1694	27.2652	708.7981	-34.6084	261.3379	22.1358	721.4041	-0.0592	0.0182	-0.0073	-0.0462	0.0165	0.9585
1.6731	0.53149	105.7246	4.6828	-39.3276	-5.51	123.7391	27.8313	685.6058	-34.4827	252.2112	21.5403	695.7598	-0.0592	0.0182	-0.0073	-0.0462	0.0165	0.9585
1.6954	-1.6614	139.6093	7.3443	-51.8116	-9.5237	164.5196	27.6308	656.6235	-34.2544	240.8793	21.1685	664.6778	-0.0592	0.0182	-0.0073	-0.0462	0.0165	0.9585
1.7176	-5.0558	173.8466	10.3802	-64.3774	-14.4368	206.2344	26.7202	622.6764	-33.8346	227.7182	20.9353	628.9651	-0.0592	0.0182	-0.0073	-0.0462	0.0165	0.9585
1.7398	-9.3624	207.7391	13.4459	-76.788	-19.7282	247.974	25.2561	585.346	-33.1408	213.3889	20.7205	590.1542	-0.0592	0.0182	-0.0073	-0.0462	0.0165	0.9585
1.762	-14.2203	241.3349	16.3005	-89.0866	-24.9625	289.5993	23.4453	546.4658	-32.0874	198.637	20.3763	550.0145	-0.0592	0.0182	-0.0073	-0.0462	0.0165	0.9585
1.7842	-19.1736	274.7365	18.9014	-101.3259	-29.8936	330.9532	21.4817	507.7542	-30.6357	184.1406	19.7919	510.2064	-0.0592	0.0182	-0.0073	-0.0462	0.0165	0.9585
1.8064	-23.7029	307.8701	21.3335	-113.4818	-34.4099	371.6421	19.5063	470.6436	-28.851	170.4367	18.9662	472.1187	-0.0592	0.0182	-0.0073	-0.0462	0.0165	0.9585
1.8286	-27.3636	340.3968	23.6647	-125.4295	-38.4253	411.0184	17.6088	436.2044	-26.8755	157.8969	17.9821	436.7884	-0.0592	0.0182	-0.0073	-0.0462	0.0165	0.9585
1.8509	-29.8535	371.7328	25.8738	-136.9571	-41.8114	448.2524	15.8447	405.1259	-24.8493	146.7326	16.933	404.8876	-0.0592	0.0182	-0.0073	-0.0462	0.0165	0.9585
1.8731	-31.0656	401.1764	27.8557	-147.8093	-44.4163	482.4848	14.2433	377.7002	-22.8767	137.0004	15.888	376.7053	-0.0592	0.0182	-0.0073	-0.0462	0.0165	0.9585
1.8953	-31.0717	428.0673	29.483	-157.7412	-46.1295	512.9894	12.823	353.8159	-21.0404	128.6073	14.9007	352.1324	-0.0592	0.0182	-0.0073	-0.0462	0.0165	0.9585
1.9175	-30.0379	451.9817	30.6958	-166.5893	-46.9492	539.3494	11.6004	332.9826	-19.4078	121.3257	14.0126	330.6795	-0.0592	0.0182	-0.0073	-0.0462	0.0165	0.9585
1.9397	-28.145	472.9242	31.5247	-174.3478	-46.9781	561.6318	10.5883	314.3863	-18.0179	114.8185	13.2453	311.5362	-0.0592	0.0182	-0.0073	-0.0462	0.0165	0.9585
1.9619	-25.5348	491.3526	32.0601	-181.1836	-46.3687	580.3857	9.7972	297.0419	-16.8687	108.6977	12.5884	293.7244	-0.0592	0.0182	-0.0073	-0.0462	0.0165	0.9585
1.9841	-22.2982	508.01	32.4138	-187.3764	-45.2792	596.4579	9.2306	280.08	-15.921	102.6333	12.0044	276.3835	-0.0592	0.0182	-0.0073	-0.0462	0.0165	0.9585
2.0064	-18.5144	523.6798	32.6967	-193.2255	-43.8636	610.7593	8.8718	262.988	-15.116	96.4396	11.4495	259.0021	-0.0592	0.0182	-0.0073	-0.0462	0.0165	0.9585
2.0286	-14.3192	539.002	32.9981	-198.9788	-42.2784	624.1034	8.6778	245.6942	-14.4081	90.1027	10.9036	241.5069	-0.0592	0.0182	-0.0073	-0.0462	0.0165	0.9585
2.0508	-9.9524	554.3719	33.3595	-204.7924	-40.6745	637.1165	8.586	228.4766	-13.7828	83.7434	10.3832	224.1731	-0.0592	0.0182	-0.0073	-0.0462	0.0165	0.9585
2.073	-5.7299	569.9124	33.7591	-210.7217	-39.1685	650.1869	8.5282	211.7709	-13.2496	77.5442	9.9267	207.4298	-0.0592	0.0182	-0.0073	-0.0462	0.0165	0.9585
2.0952	-1.9789	585.5037	34.1102	-216.7273	-37.8082	663.4555	8.4363	195.9516	-12.8143	71.6661	9.5675	191.6504	-0.0592	0.0182	-0.0073	-0.0462	0.0165	0.9585
2.1174	1.0572	600.8507	34.322	-222.6875	-36.5941	676.8186	8.2466	181.14	-12.4473	66.1708	9.305	176.9568	-0.0592	0.0182	-0.0073	-0.0462	0.0165	0.9585
